<?xml version="1.0" encoding="utf-8"?>
<!-- Generator: Adobe Illustrator 27.0.0, SVG Export Plug-In . SVG Version: 6.00 Build 0)  -->
<svg version="1.1" id="Layer_1" xmlns="http://www.w3.org/2000/svg" xmlns:xlink="http://www.w3.org/1999/xlink" x="0px" y="0px"
	 viewBox="0 0 16 16" style="enable-background:new 0 0 16 16;" xml:space="preserve">
<path d="M3.4,3.4c0.3-0.3,0.7-0.3,1,0c0,0,0,0,0,0L8,7l3.6-3.6c0.3-0.3,0.7-0.3,1,0s0.3,0.7,0,1L9,8l3.6,3.6c0.3,0.3,0.3,0.7,0,1
	s-0.7,0.3-1,0L8,9l-3.6,3.6c-0.3,0.3-0.7,0.3-1,0s-0.3-0.7,0-1L7,8L3.4,4.4C3.1,4.1,3.1,3.7,3.4,3.4C3.4,3.4,3.4,3.4,3.4,3.4z"/>
</svg>
