<?xml version="1.0" encoding="UTF-8"?>
<svg id="environment" xmlns="http://www.w3.org/2000/svg" viewBox="0 0 512 512">
  <path d="M261.92,476.46c-3.8,1.52-8.04,1.52-11.84,0L60.1,400.47l195.9-78.34,195.9,78.34-189.98,75.99Zm216.91-99.51l-206.92-82.77V41.99l206.92,82.77v252.18ZM240.08,41.96v252.25L33.17,376.94V124.73S240.08,41.96,240.08,41.96Zm-1.81,464.07c11.38,4.55,24.08,4.55,35.46,0l226.94-90.79c6.04-2.42,9.99-8.27,10-14.77V124.73c0-13.01-7.94-24.71-20.02-29.54L261.92,3.7c-3.8-1.52-8.04-1.52-11.84,0L21.39,95.19C9.29,100.01,1.35,111.71,1.33,124.73V400.47c0,6.5,3.96,12.35,10,14.77l226.94,90.79Z"/>
</svg>