<?xml version="1.0" encoding="UTF-8"?>
<svg id="maya" xmlns="http://www.w3.org/2000/svg" viewBox="0 0 512 512">
  <defs>
    <style>
      .cls-1 {
        fill: #fff;
      }

      .cls-2 {
        fill: #3470c1;
      }
    </style>
  </defs>
  <path class="cls-2" d="M512,104.71V489.02H75.64c-16.62,0-30.11-13.5-30.11-30.11v-15.63l38.88-24H488.34V104.71h23.66Z"/>
  <path class="cls-2" d="M476.34,53.09V407.28H81L0,457.28V72.98L81,22.98H446.23c16.62,0,30.11,13.49,30.11,30.11Z"/>
  <polygon class="cls-1" points="303.29 321.61 338.75 189.05 338.75 321.61 385.26 321.61 385.26 108.82 319.57 108.82 278.33 276.26 237.1 108.82 171.4 108.82 171.4 321.61 217.91 321.61 217.91 189.05 253.38 321.61 303.29 321.61"/>
</svg>