<?xml version="1.0" encoding="UTF-8"?>
<svg id="environment" xmlns="http://www.w3.org/2000/svg" viewBox="0 0 512 512">
  <defs>
    <style>
      .cls-1 {
        fill: #3470c1;
      }
    </style>
  </defs>
  <path class="cls-1" d="M467.47,120.05L268,4.88c-7.43-4.29-16.57-4.29-24,0L44.53,120.05c-7.43,4.29-12,12.21-12,20.78v230.34c0,8.57,4.57,16.49,12,20.78l199.47,115.17c3.71,2.14,7.86,3.21,12,3.21s8.29-1.07,12-3.21l199.47-115.17c7.43-4.29,12-12.21,12-20.78V140.83c0-8.57-4.57-16.49-12-20.78ZM232,444.76l-151.47-87.45V182.4l151.47,87.45v174.91ZM104.52,140.84L256,53.38l151.47,87.45-151.47,87.46L104.52,140.84Zm326.95,216.47l-151.47,87.45v-174.91l151.47-87.45v174.91Z"/>
</svg>