<?xml version="1.0" encoding="UTF-8"?>
<svg id="Layer_1" data-name="Layer 1" xmlns="http://www.w3.org/2000/svg" viewBox="0 0 48 32">
  <defs>
    <style>
      .cls-1 {
        fill: #c1272d;
      }
    </style>
  </defs>
  <path class="cls-1" d="M38,2c4.41,0,8,3.59,8,8v12c0,4.41-3.59,8-8,8H10c-4.41,0-8-3.59-8-8V10C2,5.59,5.59,2,10,2h28m0-2H10C4.48,0,0,4.48,0,10v12c0,5.52,4.48,10,10,10h28c5.52,0,10-4.48,10-10V10c0-5.52-4.48-10-10-10h0Z"/>
  <g>
    <path class="cls-1" d="M14.05,23.85h-3.32V14.76c0-.25,0-.56,.01-.93,0-.37,.02-.75,.03-1.14,.01-.39,.03-.74,.04-1.06-.08,.09-.24,.25-.48,.48-.24,.23-.46,.43-.67,.61l-1.8,1.45-1.6-2,5.06-4.03h2.73v15.7Z"/>
    <path class="cls-1" d="M23.84,7.94c.9,0,1.73,.14,2.5,.42,.76,.28,1.37,.7,1.83,1.26,.46,.56,.69,1.27,.69,2.11,0,.63-.12,1.18-.37,1.65-.25,.47-.58,.89-1,1.24s-.9,.66-1.44,.93c.56,.29,1.09,.64,1.59,1.03,.5,.39,.91,.85,1.23,1.37,.32,.52,.48,1.13,.48,1.83,0,.87-.23,1.63-.7,2.27s-1.11,1.14-1.93,1.49-1.78,.53-2.87,.53c-1.17,0-2.17-.17-3-.5-.82-.34-1.45-.82-1.88-1.44s-.64-1.38-.64-2.25c0-.72,.13-1.34,.4-1.87,.27-.53,.63-.99,1.09-1.37,.46-.38,.96-.71,1.51-.98-.47-.29-.89-.63-1.27-1-.38-.37-.69-.8-.91-1.28-.23-.48-.34-1.03-.34-1.65,0-.83,.23-1.53,.7-2.08,.47-.56,1.09-.98,1.85-1.26,.77-.28,1.59-.42,2.48-.42Zm-2.45,11.73c0,.57,.2,1.03,.61,1.4,.4,.37,1,.55,1.8,.55s1.44-.18,1.85-.53,.61-.82,.61-1.4c0-.4-.12-.75-.35-1.05-.23-.3-.53-.57-.88-.81-.35-.24-.71-.46-1.06-.67l-.29-.15c-.46,.21-.86,.44-1.2,.7-.34,.26-.61,.55-.8,.87s-.29,.69-.29,1.1Zm2.43-9.3c-.54,0-1,.14-1.35,.42-.36,.28-.54,.67-.54,1.18,0,.36,.09,.67,.26,.94,.18,.27,.41,.5,.7,.7,.29,.2,.61,.39,.95,.56,.33-.16,.64-.33,.92-.53s.52-.43,.7-.7c.18-.27,.27-.6,.27-.98,0-.51-.18-.9-.54-1.18-.36-.28-.82-.42-1.37-.42Z"/>
    <path class="cls-1" d="M37.58,14.92h4.16v2.35h-4.16v4.14h-2.35v-4.14h-4.16v-2.35h4.16v-4.19h2.35v4.19Z"/>
  </g>
</svg>