<?xml version="1.0" encoding="UTF-8"?>
<svg id="standard" xmlns="http://www.w3.org/2000/svg" viewBox="0 0 950 300">
  <defs>
    <style>
      .cls-1 {
        fill: #fff;
      }

      .cls-2 {
        fill: #617be6;
      }

      .cls-3 {
        fill: #ffe100;
      }
    </style>
  </defs>
  <g>
    <path class="cls-1" d="m176.77,139.81c0,9.45-1.17,18.05-3.52,25.79-2.35,7.75-5.91,14.41-10.69,20-4.78,5.59-10.83,9.88-18.16,12.87-7.33,2.99-15.99,4.49-26,4.49s-18.68-1.5-26-4.49c-7.33-2.99-13.38-7.28-18.16-12.87-4.78-5.59-8.35-12.27-10.69-20.05-2.35-7.77-3.52-16.41-3.52-25.92,0-12.69,2.08-23.75,6.25-33.17,4.16-9.42,10.58-16.73,19.25-21.93,8.67-5.2,19.68-7.8,33.04-7.8s24.25,2.6,32.84,7.8c8.58,5.2,14.96,12.53,19.12,21.97,4.17,9.45,6.25,20.55,6.25,33.3Zm-89.49,0c0,8.55,1.08,15.92,3.23,22.1,2.15,6.18,5.52,10.93,10.11,14.26,4.58,3.33,10.51,4.99,17.78,4.99s13.36-1.66,17.95-4.99c4.58-3.33,7.93-8.08,10.02-14.26,2.1-6.18,3.15-13.55,3.15-22.1,0-12.86-2.4-22.98-7.21-30.36-4.81-7.38-12.72-11.07-23.74-11.07-7.33,0-13.29,1.66-17.91,4.99-4.61,3.33-8,8.08-10.15,14.26-2.15,6.18-3.23,13.57-3.23,22.18Z"/>
    <path class="cls-1" d="m252.33,105.76c10.57,0,19.11,4.11,25.62,12.33,6.51,8.22,9.77,20.27,9.77,36.15,0,10.62-1.54,19.56-4.61,26.8-3.08,7.24-7.33,12.71-12.75,16.4-5.42,3.69-11.66,5.54-18.7,5.54-4.53,0-8.42-.57-11.66-1.72-3.24-1.15-6.01-2.63-8.3-4.45-2.29-1.82-4.28-3.76-5.95-5.83h-1.34c.45,2.24.78,4.53,1.01,6.88.22,2.35.34,4.64.34,6.88v40.28h-25.58V107.52h20.8l3.61,12.16h1.17c1.68-2.52,3.72-4.84,6.12-6.96,2.4-2.12,5.3-3.82,8.68-5.07,3.38-1.26,7.31-1.89,11.78-1.89Zm-8.22,20.46c-4.47,0-8.02.92-10.65,2.77-2.63,1.85-4.54,4.61-5.75,8.3-1.2,3.69-1.86,8.36-1.97,14.01v2.77c0,6.04.57,11.16,1.72,15.35,1.15,4.19,3.07,7.38,5.79,9.56,2.71,2.18,6.44,3.27,11.2,3.27,3.91,0,7.13-1.09,9.65-3.27s4.4-5.38,5.66-9.6c1.26-4.22,1.89-9.38,1.89-15.47,0-9.17-1.43-16.07-4.28-20.72-2.85-4.64-7.27-6.96-13.25-6.96Z"/>
    <path class="cls-1" d="m347.53,105.76c8.67,0,16.13,1.66,22.39,4.99,6.26,3.33,11.1,8.15,14.51,14.47,3.41,6.32,5.12,14.04,5.12,23.15v12.41h-60.47c.28,7.21,2.45,12.87,6.5,16.98,4.05,4.11,9.69,6.16,16.9,6.16,5.98,0,11.46-.61,16.44-1.84,4.98-1.23,10.09-3.08,15.35-5.54v19.79c-4.64,2.29-9.49,3.97-14.55,5.03-5.06,1.06-11.2,1.59-18.41,1.59-9.39,0-17.71-1.73-24.95-5.2-7.24-3.47-12.92-8.75-17.03-15.85-4.11-7.1-6.16-16.05-6.16-26.84s1.86-20.09,5.58-27.38c3.72-7.3,8.9-12.78,15.56-16.44,6.65-3.66,14.4-5.49,23.23-5.49Zm.17,18.2c-4.98,0-9.1,1.59-12.37,4.78-3.27,3.19-5.16,8.19-5.66,15.01h35.9c-.06-3.8-.74-7.18-2.06-10.15-1.31-2.96-3.27-5.31-5.87-7.05-2.6-1.73-5.91-2.6-9.94-2.6Z"/>
    <path class="cls-1" d="m463.6,105.76c10.01,0,18.06,2.73,24.16,8.18,6.09,5.45,9.14,14.19,9.14,26.21v61.14h-25.58v-54.77c0-6.71-1.22-11.77-3.65-15.18-2.43-3.41-6.25-5.12-11.45-5.12-7.83,0-13.17,2.66-16.02,7.97-2.85,5.31-4.28,12.97-4.28,22.98v44.12h-25.58v-93.77h19.54l3.44,11.99h1.43c2.01-3.24,4.51-5.87,7.51-7.88,2.99-2.01,6.32-3.49,9.98-4.44,3.66-.95,7.45-1.43,11.36-1.43Z"/>
  </g>
  <polygon class="cls-3" points="785.33 108.73 754.09 201.28 724.57 201.28 697.33 128.31 680.06 201.28 650.54 201.28 619.27 108.73 641.33 108.73 665.3 182.69 683.33 108.73 708.11 108.73 739.33 182.69 756.9 128.31 727.17 128.31 737.88 71.68 740.75 56.48 775.92 56.48 769.09 71.68 752.46 108.73 785.33 108.73"/>
  <path class="cls-3" d="m884.21,164.22l8.02,22.03c-4.89,4.32-10.46,7.84-16.52,10.39-7.1,2.99-14.86,4.64-23,4.64-.23,0-.46,0-.69-.01-6.67-.07-13.08-1.25-19.06-3.37-23.93-8.45-41.12-31.84-41.12-59.37s17.19-50.92,41.12-59.37c5.98-2.12,12.39-3.3,19.06-3.37.23-.01.46-.01.69-.01,8.14,0,15.9,1.65,23,4.64,6.06,2.55,11.63,6.07,16.52,10.39l-8.02,22.03c-4.12-5.48-9.5-9.86-15.69-12.65-2.73-1.23-5.61-2.15-8.61-2.72-2.34-.45-4.74-.68-7.2-.68-4.39,0-8.61.74-12.57,2.12-15.91,5.5-27.42,21.18-27.42,39.62s11.51,34.12,27.42,39.62c3.96,1.38,8.18,2.12,12.57,2.12,2.46,0,4.86-.23,7.2-.68,3-.57,5.88-1.49,8.61-2.72,6.19-2.79,11.57-7.17,15.69-12.65Z"/>
  <path class="cls-3" d="m607.3,164.22l8.02,22.03c-4.89,4.32-10.46,7.84-16.52,10.39-7.1,2.99-14.86,4.64-23,4.64-.23,0-.46,0-.69-.01-6.67-.07-13.08-1.25-19.06-3.37-23.93-8.45-41.12-31.84-41.12-59.37,0-21.04,10.04-39.66,25.45-51.03-3.7-8.49-25.45-12.11-25.45-12.11,13.72-4.75,33.75-4.7,42.75-2.41-2.62-4.7-14.24-11.98-23.08-15.08,0,0,45.64-12.43,70.15,14.13,7.75,8.4,9.93,20.55,6.02,31.29l-3.47,9.52c-4.12-5.48-9.5-9.86-15.69-12.65-2.73-1.23-5.61-2.15-8.61-2.72-2.34-.45-4.74-.68-7.2-.68-4.39,0-8.61.74-12.57,2.12-15.91,5.5-27.42,21.18-27.42,39.62s11.51,34.12,27.42,39.62c3.96,1.38,8.18,2.12,12.57,2.12,2.46,0,4.86-.23,7.2-.68,3-.57,5.88-1.49,8.61-2.72,6.19-2.79,11.57-7.17,15.69-12.65Z"/>
  <g>
    <path class="cls-2" d="m271.83,241.73h-5.34v-20.29h-6.83v-4.35h19.01v4.35h-6.83v20.29Z"/>
    <path class="cls-2" d="m310.22,241.73h-5.32v-10.63h-9.97v10.63h-5.34v-24.64h5.34v9.66h9.97v-9.66h5.32v24.64Z"/>
    <path class="cls-2" d="m338.12,241.73h-14.5v-24.64h14.5v4.28h-9.16v5.41h8.52v4.28h-8.52v6.35h9.16v4.31Z"/>
    <path class="cls-2" d="m373.96,217.1c2.28,0,4.17.27,5.66.81,1.49.54,2.59,1.35,3.31,2.44s1.08,2.47,1.08,4.13c0,1.12-.22,2.11-.65,2.95-.44.84-1.01,1.56-1.72,2.14-.71.58-1.48,1.06-2.31,1.43l7.4,10.73h-5.92l-6.01-9.45h-2.84v9.45h-5.34v-24.64h7.33Zm-.38,4.28h-1.62v6.66h1.72c1.77,0,3.03-.29,3.8-.87.76-.58,1.14-1.43,1.14-2.55s-.41-2-1.23-2.49c-.82-.49-2.09-.74-3.81-.74Z"/>
    <path class="cls-2" d="m411.45,241.73h-14.5v-24.64h14.5v4.28h-9.16v5.41h8.52v4.28h-8.52v6.35h9.16v4.31Z"/>
    <path class="cls-2" d="m443.5,217.1l-8.56,24.64h-5.82l-8.54-24.64h5.39l4.73,14.66c.08.25.21.71.4,1.39.18.68.37,1.4.56,2.16.19.76.32,1.38.39,1.88.07-.49.19-1.12.37-1.87.18-.75.36-1.47.53-2.15.18-.68.31-1.15.39-1.41l4.77-14.66h5.39Z"/>
    <path class="cls-2" d="m476.57,229.38c0,1.9-.24,3.63-.72,5.18-.48,1.56-1.21,2.9-2.2,4.02-.98,1.12-2.22,1.99-3.73,2.59-1.5.6-3.28.9-5.34.9s-3.83-.3-5.34-.9c-1.5-.6-2.75-1.46-3.73-2.59-.98-1.12-1.71-2.47-2.2-4.03s-.72-3.3-.72-5.21c0-2.55.43-4.77,1.28-6.66.85-1.89,2.17-3.36,3.95-4.41,1.78-1.04,4.04-1.57,6.78-1.57s4.98.52,6.74,1.57c1.76,1.04,3.07,2.52,3.93,4.42.85,1.9,1.28,4.13,1.28,6.69Zm-18.37,0c0,1.72.22,3.2.66,4.44.44,1.24,1.13,2.2,2.07,2.86.94.67,2.16,1,3.65,1s2.74-.33,3.68-1c.94-.67,1.63-1.62,2.06-2.86.43-1.24.65-2.72.65-4.44,0-2.58-.49-4.62-1.48-6.1s-2.61-2.22-4.87-2.22c-1.5,0-2.73.33-3.68,1-.95.67-1.64,1.62-2.08,2.86-.44,1.24-.66,2.73-.66,4.46Z"/>
    <path class="cls-2" d="m488.84,241.73v-24.64h5.34v20.32h10.21v4.31h-15.55Z"/>
    <path class="cls-2" d="m536.29,217.1v15.94c0,1.7-.38,3.23-1.14,4.59-.76,1.37-1.92,2.45-3.46,3.24-1.54.8-3.49,1.2-5.83,1.2-3.33,0-5.86-.83-7.61-2.49s-2.62-3.87-2.62-6.61v-15.87h5.32v15.08c0,2.03.42,3.46,1.27,4.28s2.11,1.23,3.77,1.23c1.17,0,2.12-.2,2.85-.59.73-.39,1.26-1,1.61-1.82s.52-1.86.52-3.13v-15.05h5.32Z"/>
    <path class="cls-2" d="m559.22,241.73h-5.34v-20.29h-6.83v-4.35h19.01v4.35h-6.83v20.29Z"/>
    <path class="cls-2" d="m576.98,241.73v-24.64h5.34v24.64h-5.34Z"/>
    <path class="cls-2" d="m618.55,229.38c0,1.9-.24,3.63-.72,5.18-.48,1.56-1.21,2.9-2.19,4.02-.98,1.12-2.22,1.99-3.73,2.59-1.5.6-3.28.9-5.34.9s-3.83-.3-5.34-.9c-1.5-.6-2.75-1.46-3.73-2.59-.98-1.12-1.71-2.47-2.19-4.03s-.72-3.3-.72-5.21c0-2.55.43-4.77,1.28-6.66.85-1.89,2.17-3.36,3.95-4.41s4.04-1.57,6.78-1.57,4.98.52,6.74,1.57c1.76,1.04,3.07,2.52,3.93,4.42.86,1.9,1.28,4.13,1.28,6.69Zm-18.37,0c0,1.72.22,3.2.66,4.44.44,1.24,1.13,2.2,2.08,2.86.94.67,2.16,1,3.65,1s2.74-.33,3.68-1c.94-.67,1.63-1.62,2.06-2.86.43-1.24.65-2.72.65-4.44,0-2.58-.49-4.62-1.48-6.1s-2.61-2.22-4.87-2.22c-1.5,0-2.73.33-3.68,1-.95.67-1.64,1.62-2.08,2.86-.44,1.24-.66,2.73-.66,4.46Z"/>
    <path class="cls-2" d="m653.14,241.73h-6.78l-10.95-18.64h-.15c.05.78.09,1.56.12,2.34s.07,1.57.1,2.35c.03.78.07,1.57.1,2.35v11.59h-4.77v-24.64h6.73l10.93,18.45h.12c-.02-.76-.05-1.52-.09-2.28s-.07-1.51-.1-2.26c-.03-.75-.05-1.51-.08-2.26v-11.66h4.8v24.64Z"/>
    <path class="cls-2" d="m705.59,229.38c0,1.9-.24,3.63-.72,5.18-.48,1.56-1.21,2.9-2.19,4.02-.98,1.12-2.22,1.99-3.73,2.59-1.5.6-3.28.9-5.34.9s-3.83-.3-5.34-.9c-1.5-.6-2.75-1.46-3.73-2.59-.98-1.12-1.71-2.47-2.19-4.03s-.72-3.3-.72-5.21c0-2.55.43-4.77,1.28-6.66.85-1.89,2.17-3.36,3.95-4.41s4.04-1.57,6.78-1.57,4.98.52,6.74,1.57c1.76,1.04,3.07,2.52,3.93,4.42.86,1.9,1.28,4.13,1.28,6.69Zm-18.37,0c0,1.72.22,3.2.66,4.44.44,1.24,1.13,2.2,2.08,2.86.94.67,2.16,1,3.65,1s2.74-.33,3.68-1c.94-.67,1.63-1.62,2.06-2.86.43-1.24.65-2.72.65-4.44,0-2.58-.49-4.62-1.48-6.1s-2.61-2.22-4.87-2.22c-1.5,0-2.73.33-3.68,1-.95.67-1.64,1.62-2.08,2.86-.44,1.24-.66,2.73-.66,4.46Z"/>
    <path class="cls-2" d="m723.11,241.73h-5.25v-24.64h14.43v4.28h-9.18v6.35h8.54v4.26h-8.54v9.74Z"/>
    <path class="cls-2" d="m771.16,221.09c-1.02,0-1.93.19-2.71.58-.79.39-1.45.95-1.98,1.68-.53.73-.94,1.61-1.21,2.65s-.41,2.2-.41,3.49c0,1.74.22,3.23.66,4.46.44,1.23,1.13,2.17,2.06,2.81.93.65,2.13.97,3.6.97,1.02,0,2.05-.11,3.07-.34,1.03-.23,2.14-.55,3.35-.96v4.38c-1.11.45-2.21.77-3.29.97-1.08.2-2.29.3-3.63.3-2.59,0-4.73-.53-6.4-1.58-1.67-1.05-2.91-2.52-3.71-4.42-.8-1.89-1.21-4.1-1.21-6.63,0-1.86.26-3.57.77-5.12s1.27-2.89,2.27-4.03,2.23-2.01,3.7-2.63,3.16-.93,5.06-.93c1.25,0,2.5.15,3.76.46,1.26.31,2.46.73,3.61,1.27l-1.72,4.25c-.94-.44-1.89-.82-2.84-1.15s-1.89-.49-2.81-.49Z"/>
    <path class="cls-2" d="m810.61,241.73h-5.32v-10.63h-9.97v10.63h-5.34v-24.64h5.34v9.66h9.97v-9.66h5.32v24.64Z"/>
    <path class="cls-2" d="m831.35,217.1c2.28,0,4.17.27,5.65.81,1.49.54,2.59,1.35,3.31,2.44s1.08,2.47,1.08,4.13c0,1.12-.22,2.11-.65,2.95s-1.01,1.56-1.72,2.14-1.48,1.06-2.31,1.43l7.4,10.73h-5.92l-6.01-9.45h-2.84v9.45h-5.34v-24.64h7.33Zm-.38,4.28h-1.62v6.66h1.72c1.77,0,3.03-.29,3.8-.87.76-.58,1.15-1.43,1.15-2.55s-.41-2-1.23-2.49c-.82-.49-2.09-.74-3.81-.74Z"/>
    <path class="cls-2" d="m854.34,241.73v-24.64h5.34v24.64h-5.34Z"/>
    <path class="cls-2" d="m887.93,234.89c0,1.46-.36,2.73-1.08,3.81s-1.78,1.91-3.16,2.49c-1.38.58-3.06.88-5.04.88-.87,0-1.72-.06-2.56-.17-.83-.11-1.63-.28-2.39-.5-.76-.22-1.49-.49-2.18-.82v-4.85c1.19.52,2.43.98,3.72,1.4s2.56.62,3.82.62c.87,0,1.58-.11,2.11-.34.53-.23.92-.53,1.16-.93s.36-.84.36-1.35c0-.62-.21-1.15-.64-1.58s-1.01-.85-1.75-1.23c-.74-.38-1.57-.79-2.5-1.23-.59-.27-1.22-.6-1.91-.99-.69-.39-1.34-.86-1.96-1.42s-1.13-1.24-1.52-2.05c-.4-.8-.59-1.77-.59-2.89,0-1.47.34-2.73,1.03-3.77s1.67-1.84,2.95-2.4c1.28-.56,2.79-.83,4.54-.83,1.31,0,2.56.15,3.74.45,1.19.3,2.43.73,3.73,1.29l-1.72,4.06c-1.16-.46-2.2-.82-3.12-1.07-.92-.25-1.85-.38-2.81-.38-.67,0-1.23.1-1.7.31-.47.21-.83.5-1.07.88-.24.38-.36.81-.36,1.31,0,.58.18,1.08.52,1.47.35.4.88.78,1.58,1.15.71.37,1.59.8,2.64,1.3,1.29.6,2.38,1.22,3.3,1.86.91.65,1.62,1.4,2.11,2.28.49.87.74,1.95.74,3.24Z"/>
  </g>
</svg>